<svg xmlns="http://www.w3.org/2000/svg" width="96" height="96" viewBox="0 0 96 96">
  <circle cx="48" cy="48" r="48" fill="#6e44ff"/>
  <path fill="#FFFFFF" d="M60,32 L60,62 C60,65.3137 57.3137,68 54,68 C50.6863,68 48,65.3137 48,62 C48,58.6863 50.6863,56 54,56 C55.0609,56 56.0783,56.2922 57,56.8284 L57,35 L36,40 L36,64 C36,67.3137 33.3137,70 30,70 C26.6863,70 24,67.3137 24,64 C24,60.6863 26.6863,58 30,58 C31.0609,58 32.0783,58.2922 33,58.8284 L33,37 C33,35.8744 33.7823,34.8357 34.8864,34.5051 L58.8864,28.5051 C60.2032,28.1003 61.5728,28.8423 61.9776,30.1591 C61.9924,30.2128 62,30.214 62,30.2151 C61.9992,30.8102 61.7424,31.3661 61.29,31.7319 C60.8376,32.0976 60.2532,32.2359 59.6808,32.1147 L60,32 Z"/>
</svg>
